<svg width="441" height="441" viewBox="0 0 441 441" fill="none" xmlns="http://www.w3.org/2000/svg">
<path d="M181.207 309.606C195.795 301.839 209.318 292.251 217.097 284.764C217.651 285.422 218.218 286.109 218.805 286.822C223.209 292.159 228.768 298.899 238.457 305.114C250.87 313.076 269.998 320.223 302.52 323.687L302.652 323.701H302.785C338.059 323.701 357.602 310.078 368.301 298.836C371.607 295.362 374.112 292.052 375.89 289.594C375.333 307.684 365.59 346.489 332.552 372.719C319.758 382.878 300.944 391.537 280.815 397.656C260.707 403.768 239.512 407.278 222.069 407.278C185.478 407.278 144.921 403.222 115.51 382.933C97.1101 370.239 83.3114 351.934 74.1064 334.581C64.8589 317.148 60.4408 301.052 60.4408 292.935C60.4408 292.203 60.4813 291.658 60.539 291.263C60.7837 291.391 61.085 291.567 61.4494 291.807C62.9151 292.772 64.8139 294.357 67.2687 296.455C67.5626 296.706 67.8633 296.964 68.1706 297.227C70.3803 299.119 72.9335 301.304 75.7927 303.577C88.7761 313.899 108.524 326.397 134.618 323.71C141.304 324.138 148.992 322.69 156.877 320.158C164.878 317.588 173.238 313.849 181.207 309.606ZM60.7171 290.545C60.7172 290.545 60.7155 290.548 60.7118 290.554C60.7152 290.548 60.717 290.545 60.7171 290.545ZM59.8556 290.985C59.8513 290.984 59.8491 290.984 59.8491 290.984C59.849 290.984 59.8511 290.984 59.8556 290.985Z" stroke="#112D4E" stroke-width="5"/>
<path d="M60.6146 291.407C60.6146 291.407 80.0951 252.828 135.481 255.12C190.867 257.412 204.787 297.698 204.787 297.698" stroke="#112D4E" stroke-width="5"/>
<path d="M231.058 297.709C231.058 297.709 247.735 260.169 302.922 254.946C358.108 249.723 376.059 287.785 376.059 287.785" stroke="#112D4E" stroke-width="5"/>
<path fill-rule="evenodd" clip-rule="evenodd" d="M331.433 338.008C244.293 366.762 193.583 366.435 100.34 338.008L99.2782 342.076C100.253 341.668 101.322 341.443 102.444 341.443C106.98 341.443 110.657 345.12 110.657 349.656C110.657 354.191 106.98 357.868 102.444 357.868C99.8193 357.868 97.482 356.636 95.9786 354.72L95.2258 357.604C183.234 396.037 251.582 393.961 344.42 354.815L341.647 351.226C340.299 353.92 337.514 355.77 334.298 355.77C329.762 355.77 326.085 352.093 326.085 347.557C326.085 343.603 328.88 340.302 332.601 339.52L331.433 338.008ZM307.941 363.982C312.477 363.982 316.154 360.305 316.154 355.77C316.154 351.234 312.477 347.557 307.941 347.557C303.406 347.557 299.729 351.234 299.729 355.77C299.729 360.305 303.406 363.982 307.941 363.982ZM292.472 363.982C292.472 368.518 288.795 372.194 284.259 372.194C279.724 372.194 276.047 368.518 276.047 363.982C276.047 359.446 279.724 355.77 284.259 355.77C288.795 355.77 292.472 359.446 292.472 363.982ZM260.577 377.927C265.113 377.927 268.79 374.25 268.79 369.714C268.79 365.179 265.113 361.502 260.577 361.502C256.042 361.502 252.365 365.179 252.365 369.714C252.365 374.25 256.042 377.927 260.577 377.927ZM238.996 372.194C238.996 376.73 235.32 380.407 230.784 380.407C226.249 380.407 222.572 376.73 222.572 372.194C222.572 367.659 226.249 363.982 230.784 363.982C235.32 363.982 238.996 367.659 238.996 372.194ZM203.283 380.407C207.818 380.407 211.495 376.73 211.495 372.194C211.495 367.659 207.818 363.982 203.283 363.982C198.747 363.982 195.07 367.659 195.07 372.194C195.07 376.73 198.747 380.407 203.283 380.407ZM183.993 369.714C183.993 374.25 180.316 377.927 175.781 377.927C171.245 377.927 167.568 374.25 167.568 369.714C167.568 365.179 171.245 361.502 175.781 361.502C180.316 361.502 183.993 365.179 183.993 369.714ZM149.808 372.194C154.343 372.194 158.02 368.518 158.02 363.982C158.02 359.446 154.343 355.77 149.808 355.77C145.272 355.77 141.595 359.446 141.595 363.982C141.595 368.518 145.272 372.194 149.808 372.194ZM134.338 357.868C134.338 362.403 130.662 366.08 126.126 366.08C121.59 366.08 117.914 362.403 117.914 357.868C117.914 353.332 121.59 349.656 126.126 349.656C130.662 349.656 134.338 353.332 134.338 357.868Z" fill="#112D4E"/>
<line x1="218.001" y1="318.083" x2="218.001" y2="348.652" stroke="#112D4E" stroke-width="4"/>
<line x1="202.894" y1="333.458" x2="233.462" y2="333.458" stroke="#112D4E" stroke-width="4"/>
<line x1="219.823" y1="320.098" x2="233.462" y2="320.098" stroke="#112D4E" stroke-width="4"/>
<line x1="202.894" y1="346.652" x2="216.001" y2="346.652" stroke="#112D4E" stroke-width="4"/>
<line x1="204.897" y1="331.472" x2="204.897" y2="318.365" stroke="#112D4E" stroke-width="4"/>
<line x1="231.462" y1="348.565" x2="231.462" y2="335.458" stroke="#112D4E" stroke-width="4"/>
<path d="M108.071 296.218V305.693H101.34V277.768H112.482C114.618 277.768 116.504 278.164 118.14 278.957C119.79 279.737 121.062 280.856 121.957 282.313C122.865 283.758 123.319 285.401 123.319 287.242C123.319 289.966 122.34 292.146 120.384 293.782C118.441 295.406 115.768 296.218 112.367 296.218H108.071ZM108.071 291.021H112.482C113.787 291.021 114.778 290.695 115.455 290.043C116.146 289.391 116.491 288.47 116.491 287.281C116.491 285.977 116.139 284.935 115.436 284.155C114.733 283.375 113.774 282.978 112.559 282.966H108.071V291.021Z" fill="#112D4E"/>
<path d="M157.855 295.983H154.266V305.693H147.636V278.189H158.459C161.721 278.189 164.271 278.914 166.109 280.362C167.948 281.81 168.867 283.856 168.867 286.501C168.867 288.415 168.477 290.002 167.696 291.261C166.928 292.52 165.719 293.54 164.069 294.321L169.812 305.409V305.693H162.709L157.855 295.983ZM154.266 290.864H158.459C159.719 290.864 160.663 290.537 161.293 289.882C161.935 289.215 162.256 288.289 162.256 287.105C162.256 285.922 161.935 284.996 161.293 284.329C160.65 283.649 159.706 283.309 158.459 283.309H154.266V290.864Z" fill="#112D4E"/>
<path d="M272.773 305.693V278.189H281.633C284.063 278.189 286.248 278.744 288.187 279.852C290.127 280.947 291.638 282.503 292.721 284.517C293.816 286.52 294.37 288.768 294.383 291.261V292.527C294.383 295.045 293.848 297.306 292.777 299.308C291.72 301.298 290.221 302.859 288.282 303.993C286.355 305.113 284.202 305.68 281.822 305.693H272.773ZM279.404 283.309V300.592H281.708C283.61 300.592 285.071 299.919 286.091 298.571C287.111 297.211 287.621 295.196 287.621 292.527V291.337C287.621 288.679 287.111 286.677 286.091 285.33C285.071 283.982 283.585 283.309 281.633 283.309H279.404Z" fill="#112D4E"/>
<path d="M330.276 298.21C330.276 297.266 329.939 296.531 329.265 296.004C328.603 295.477 327.433 294.932 325.754 294.368C324.074 293.804 322.702 293.259 321.635 292.732C318.167 291.028 316.433 288.687 316.433 285.709C316.433 284.226 316.862 282.92 317.72 281.793C318.59 280.653 319.815 279.771 321.396 279.145C322.977 278.508 324.755 278.189 326.728 278.189C328.652 278.189 330.374 278.533 331.894 279.219C333.426 279.905 334.615 280.886 335.46 282.161C336.306 283.423 336.729 284.869 336.729 286.499H330.294C330.294 285.408 329.957 284.563 329.283 283.962C328.621 283.362 327.721 283.061 326.581 283.061C325.429 283.061 324.516 283.319 323.842 283.834C323.18 284.336 322.849 284.979 322.849 285.764C322.849 286.45 323.216 287.075 323.952 287.639C324.687 288.191 325.98 288.767 327.831 289.367C329.682 289.956 331.201 290.593 332.39 291.279C335.283 292.946 336.729 295.244 336.729 298.173C336.729 300.514 335.847 302.353 334.082 303.689C332.317 305.025 329.896 305.693 326.82 305.693C324.65 305.693 322.683 305.307 320.918 304.534C319.166 303.75 317.842 302.684 316.947 301.335C316.065 299.975 315.624 298.412 315.624 296.647H322.095C322.095 298.081 322.463 299.142 323.198 299.828C323.946 300.502 325.153 300.839 326.82 300.839C327.886 300.839 328.726 300.612 329.338 300.159C329.964 299.693 330.276 299.044 330.276 298.21Z" fill="#112D4E"/>
<path d="M260.422 207.52V207.586L260.426 207.652C261.619 225.674 254.902 239.982 245.68 249.622C236.385 259.34 224.736 264.14 216.24 263.486L216.163 263.48H216.086C208.411 263.48 196.972 259.844 188.977 251.58C181.16 243.499 176.452 230.802 182.23 212.114C201.996 182.72 213.403 161.346 219.771 146.862C222.963 139.602 224.898 134.052 225.983 130.076C226.525 128.09 226.862 126.472 227.033 125.212C227.047 125.115 227.059 125.017 227.071 124.92C229.79 125.709 232.924 128.08 236.276 132.146C240.381 137.127 244.448 144.215 248.049 152.499C255.255 169.073 260.422 190.025 260.422 207.52Z" stroke="#112D4E" stroke-width="4"/>
<path d="M234.141 231.895V231.996L234.151 232.097C234.825 238.73 232.51 243.86 229.244 247.25C225.907 250.715 221.717 252.242 218.752 251.924L218.646 251.912H218.539C215.926 251.912 211.913 250.645 209.132 247.77C206.516 245.065 204.808 240.754 206.83 234.112C213.969 221.699 218.21 213.289 220.676 207.956C221.916 205.275 222.708 203.369 223.194 202.119C223.195 202.116 223.196 202.112 223.198 202.109C223.761 202.472 224.452 203.081 225.251 204.051C226.712 205.823 228.203 208.403 229.544 211.488C232.228 217.663 234.141 225.454 234.141 231.895Z" fill="#112D4E" stroke="#112D4E" stroke-width="4"/>
<line x1="275.799" y1="161.902" x2="300.189" y2="182.3" stroke="#112D4E" stroke-width="2"/>
<line x1="284.366" y1="152.644" x2="311.392" y2="169.392" stroke="#112D4E" stroke-width="2"/>
<line x1="291.019" y1="140.919" x2="320.443" y2="152.967" stroke="#112D4E" stroke-width="2"/>
<line x1="294.058" y1="130.948" x2="325.538" y2="135.418" stroke="#112D4E" stroke-width="2"/>
<line x1="296.937" y1="119.861" x2="328.677" y2="117.996" stroke="#112D4E" stroke-width="2"/>
<line x1="295.78" y1="105.636" x2="326.85" y2="98.8849" stroke="#112D4E" stroke-width="2"/>
<line x1="294.431" y1="93.6255" x2="323.458" y2="80.6496" stroke="#112D4E" stroke-width="2"/>
<line x1="288.933" y1="82.3838" x2="317.622" y2="65.2531" stroke="#112D4E" stroke-width="2"/>
<line x1="281.679" y1="71.7174" x2="307.082" y2="49.045" stroke="#112D4E" stroke-width="2"/>
<line x1="271.906" y1="60.8036" x2="294.233" y2="34.5384" stroke="#112D4E" stroke-width="2"/>
<line x1="263.053" y1="54.781" x2="278.762" y2="23.6402" stroke="#112D4E" stroke-width="2"/>
<line x1="252.782" y1="49.5014" x2="262.989" y2="15.7744" stroke="#112D4E" stroke-width="2"/>
<line x1="237.939" y1="46.8836" x2="243.729" y2="11.6526" stroke="#112D4E" stroke-width="2"/>
<line x1="228.634" y1="45.3898" x2="225.307" y2="9.90816" stroke="#112D4E" stroke-width="2"/>
<line x1="217.092" y1="45.385" x2="205.899" y2="12.1338" stroke="#112D4E" stroke-width="2"/>
<line x1="205.992" y1="49.9615" x2="186.731" y2="18.2356" stroke="#112D4E" stroke-width="2"/>
<line x1="193.916" y1="54.5994" x2="170.91" y2="28.3213" stroke="#112D4E" stroke-width="2"/>
<line x1="184.569" y1="63.1062" x2="157.443" y2="39.4813" stroke="#112D4E" stroke-width="2"/>
<line x1="175.948" y1="71.6344" x2="146.126" y2="54.8116" stroke="#112D4E" stroke-width="2"/>
<line x1="168.605" y1="83.5388" x2="137.59" y2="69.1434" stroke="#112D4E" stroke-width="2"/>
<line x1="164.704" y1="94.8796" x2="130.898" y2="85.7268" stroke="#112D4E" stroke-width="2"/>
<line x1="161.916" y1="106.934" x2="130.12" y2="101.802" stroke="#112D4E" stroke-width="2"/>
<line x1="161.892" y1="118.128" x2="127.654" y2="116.686" stroke="#112D4E" stroke-width="2"/>
<line x1="163.834" y1="130.372" x2="130.532" y2="134.317" stroke="#112D4E" stroke-width="2"/>
<line x1="167.124" y1="141.189" x2="134.62" y2="151.862" stroke="#112D4E" stroke-width="2"/>
<line x1="173.818" y1="151.795" x2="143.32" y2="167.987" stroke="#112D4E" stroke-width="2"/>
<line x1="181.364" y1="161.087" x2="154.926" y2="182.174" stroke="#112D4E" stroke-width="2"/>
<g filter="url(#filter0_f)">
<line x1="275.799" y1="161.902" x2="300.189" y2="182.3" stroke="#112D4E" stroke-width="2"/>
<line x1="284.366" y1="152.644" x2="311.392" y2="169.392" stroke="#112D4E" stroke-width="2"/>
<line x1="291.019" y1="140.919" x2="320.443" y2="152.967" stroke="#112D4E" stroke-width="2"/>
<line x1="294.058" y1="130.948" x2="325.538" y2="135.418" stroke="#112D4E" stroke-width="2"/>
<line x1="296.937" y1="119.861" x2="328.677" y2="117.996" stroke="#112D4E" stroke-width="2"/>
<line x1="295.78" y1="105.636" x2="326.85" y2="98.8849" stroke="#112D4E" stroke-width="2"/>
<line x1="294.431" y1="93.6255" x2="323.458" y2="80.6496" stroke="#112D4E" stroke-width="2"/>
<line x1="288.933" y1="82.3838" x2="317.622" y2="65.2531" stroke="#112D4E" stroke-width="2"/>
<line x1="281.679" y1="71.7174" x2="307.082" y2="49.045" stroke="#112D4E" stroke-width="2"/>
<line x1="271.906" y1="60.8036" x2="294.233" y2="34.5384" stroke="#112D4E" stroke-width="2"/>
<line x1="263.053" y1="54.781" x2="278.762" y2="23.6402" stroke="#112D4E" stroke-width="2"/>
<line x1="252.782" y1="49.5014" x2="262.989" y2="15.7744" stroke="#112D4E" stroke-width="2"/>
<line x1="237.939" y1="46.8836" x2="243.729" y2="11.6526" stroke="#112D4E" stroke-width="2"/>
<line x1="228.634" y1="45.3898" x2="225.307" y2="9.90816" stroke="#112D4E" stroke-width="2"/>
<line x1="217.092" y1="45.385" x2="205.899" y2="12.1338" stroke="#112D4E" stroke-width="2"/>
<line x1="205.992" y1="49.9615" x2="186.731" y2="18.2356" stroke="#112D4E" stroke-width="2"/>
<line x1="193.916" y1="54.5994" x2="170.91" y2="28.3213" stroke="#112D4E" stroke-width="2"/>
<line x1="184.569" y1="63.1062" x2="157.443" y2="39.4813" stroke="#112D4E" stroke-width="2"/>
<line x1="175.948" y1="71.6344" x2="146.126" y2="54.8116" stroke="#112D4E" stroke-width="2"/>
<line x1="168.605" y1="83.5388" x2="137.59" y2="69.1434" stroke="#112D4E" stroke-width="2"/>
<line x1="164.704" y1="94.8796" x2="130.898" y2="85.7268" stroke="#112D4E" stroke-width="2"/>
<line x1="161.916" y1="106.934" x2="130.12" y2="101.802" stroke="#112D4E" stroke-width="2"/>
<line x1="161.892" y1="118.128" x2="127.654" y2="116.686" stroke="#112D4E" stroke-width="2"/>
<line x1="163.834" y1="130.372" x2="130.532" y2="134.317" stroke="#112D4E" stroke-width="2"/>
<line x1="167.124" y1="141.189" x2="134.62" y2="151.862" stroke="#112D4E" stroke-width="2"/>
<line x1="173.818" y1="151.795" x2="143.32" y2="167.987" stroke="#112D4E" stroke-width="2"/>
<line x1="181.364" y1="161.087" x2="154.926" y2="182.174" stroke="#112D4E" stroke-width="2"/>
</g>
<defs>
<filter id="filter0_f" x="118.612" y="0.814804" width="219.124" height="191.252" filterUnits="userSpaceOnUse" color-interpolation-filters="sRGB">
<feFlood flood-opacity="0" result="BackgroundImageFix"/>
<feBlend mode="normal" in="SourceGraphic" in2="BackgroundImageFix" result="shape"/>
<feGaussianBlur stdDeviation="4.5" result="effect1_foregroundBlur"/>
</filter>
</defs>
</svg>
